<?xml version="1.0" ?><svg xmlns="http://www.w3.org/2000/svg" xmlns:xlink="http://www.w3.org/1999/xlink" version="1.1" viewBox="0 0 512 512" style="enable-background:new 0 0 512 512;" xml:space="preserve"><g id="_x32_2_x2C__deck_chair_x2C__beach_x2C__sitting_x2C__beach_chair_x2C__outdoor_x2C__furniture"><g><path d="M506,411H445.86l-25.25-50.5h12.69c15.273,0,27.7-12.426,27.7-27.7v-9.1c0-15.274-12.427-27.7-27.7-27.7H401v-1.9    c0-12.737-10.362-23.1-23.1-23.1H359.1c-7.328,0-13.865,3.434-18.1,8.772c-4.235-5.339-10.772-8.772-18.1-8.772H256v-10h42.5    c9.649,0,17.5-7.851,17.5-17.5S308.15,226,298.5,226H256V121h49.782c8.169,0,15.435-3.939,20-10.017    c4.565,6.078,11.831,10.017,20,10.017H371c10.231,0,19.041-6.18,22.906-15H501.7c1.783,0,3.432-0.95,4.326-2.493    c12.002-20.708,1.354-47.348-21.721-54.068C491.683,25.486,473.711,1,448.513,1c-25.24,0-43.494,24.697-35.593,49.016    c-10.183,3.275-18.857,10.31-24.119,19.887c-1.822-0.395-3.684-0.594-5.57-0.594c-6.196,0-12.146,2.181-16.851,6.087    L243.572,1.713c-1.592-0.957-3.625-0.913-5.145,0l-150,90C86.999,92.57,86,94.209,86,96c0,13.785,11.215,25,25,25h25.218    c8.169,0,15.435-3.939,20-10.017c4.565,6.078,11.831,10.017,20,10.017H226v105H97.527l-5.618-7.51    C81.374,204.407,64.584,196,46.996,196H6c-4.129,0-6.481,4.743-3.978,8.03l104.212,136.782L71.141,411H6c-2.762,0-5,2.238-5,5v90    c0,2.762,2.238,5,5,5h500c2.762,0,5-2.238,5-5v-90C511,413.238,508.762,411,506,411z M434.68,411h-22.44l-25.451-50.5h22.641    L434.68,411z M115.959,411l25.452-50.5H226V411H115.959z M236,360.5h10V411h-10V360.5z M256,360.5h119.591l25.45,50.5H256V360.5z     M226,261v10c-35.972,0.16-35.632-0.367-39.727,0.488L191.56,261H226z M359.1,281h18.801c7.224,0,13.1,5.876,13.1,13.1v1.9h-45    v-1.9C346,286.876,351.876,281,359.1,281z M336,294.1v1.9h-158.1v-1.9c0-7.223,5.877-13.1,13.1-13.1h131.9    C330.123,281,336,286.877,336,294.1z M246,271h-10v-10h10V271z M364.639,86.014c0.002,0.001,0.003,0.002,0.004,0.003L372.949,91    h-45.007l-58.508-62.109L364.639,86.014z M154.059,91h-45.007l103.516-62.109L154.059,91z M371,111h-25.218    c-6.519,0-12.08-4.18-14.144-10h53.505C383.08,106.82,377.519,111,371,111z M383.231,79.31c2.164,0,4.276,0.423,6.276,1.256    c2.545,1.062,5.473-0.142,6.536-2.688c7.964-19.059,31.145-25.635,47.844-14.475c-2.008,2.792-3.65,5.89-4.834,9.241    c-0.921,2.604,0.444,5.46,3.048,6.38c2.593,0.919,5.459-0.438,6.38-3.048c3.716-10.513,13.808-18.017,25.489-18.017    c19.575,0,32.641,20.25,24.68,38.04H396c0-1.677-0.991-3.425-2.428-4.287l-17.709-10.626    C378.127,79.944,380.639,79.31,383.231,79.31z M136.218,111H111c-6.519,0-12.08-4.18-14.144-10h53.505    C148.298,106.82,142.737,111,136.218,111z M162.074,101h157.852c-2.063,5.82-7.625,10-14.144,10c-15.181,0-114.225,0-129.564,0    C169.699,111,164.138,106.82,162.074,101z M236,121h10v105h-10V121z M137.155,278.972L123.71,261h22.431L137.155,278.972z     M16.096,206h30.9c14.452,0,28.249,6.908,36.905,18.48l48.25,64.499l-20.935,41.87L16.096,206z M157.321,261h23.041l-75.601,150    h-22.44L157.321,261z M501,501H11v-80c25.137,0,465.871,0,490,0V501z"/><path d="M101,441h-5c-2.762,0-5,2.238-5,5s2.238,5,5,5h5c2.762,0,5-2.238,5-5S103.762,441,101,441z"/><path d="M146,461h-15c-2.762,0-5,2.238-5,5s2.238,5,5,5h15c2.762,0,5-2.238,5-5S148.762,461,146,461z"/><path d="M211,441h-5c-2.762,0-5,2.238-5,5s2.238,5,5,5h5c2.762,0,5-2.238,5-5S213.762,441,211,441z"/><path d="M286,461h-5c-2.762,0-5,2.238-5,5s2.238,5,5,5h5c2.762,0,5-2.238,5-5S288.762,461,286,461z"/><path d="M381,451h-10c-2.762,0-5,2.238-5,5s2.238,5,5,5h10c2.762,0,5-2.238,5-5S383.762,451,381,451z"/><path d="M426,441h-5c-2.762,0-5,2.238-5,5s2.238,5,5,5h5c2.762,0,5-2.238,5-5S428.762,441,426,441z"/><path d="M441,481c0,2.762,2.238,5,5,5h5c2.762,0,5-2.238,5-5s-2.238-5-5-5h-5C443.238,476,441,478.238,441,481z"/><path d="M461,451h10c2.762,0,5-2.238,5-5s-2.238-5-5-5h-10c-2.762,0-5,2.238-5,5S458.238,451,461,451z"/><path d="M56,471H46c-2.762,0-5,2.238-5,5s2.238,5,5,5h10c2.762,0,5-2.238,5-5S58.762,471,56,471z"/></g></g><g id="Layer_1"/></svg>