<?xml version="1.0" ?><!DOCTYPE svg  PUBLIC '-//W3C//DTD SVG 1.1//EN'  'http://www.w3.org/Graphics/SVG/1.1/DTD/svg11.dtd'><svg xmlns="http://www.w3.org/2000/svg" xmlns:xlink="http://www.w3.org/1999/xlink" xmlns:serif="http://www.serif.com/" width="100%" height="100%" viewBox="0 0 512 512" version="1.1" xml:space="preserve" style="fill-rule:evenodd;clip-rule:evenodd;stroke-linejoin:round;stroke-miterlimit:2;"><g transform="matrix(1,0,0,1,-1124,-2248)"><g id="Icons"><path d="M1222.67,2663.36C1203.5,2667.86 1189.21,2685.08 1189.21,2705.61C1189.21,2729.56 1208.65,2749 1232.6,2749C1245.41,2749 1256.92,2743.45 1264.87,2734.62C1272.81,2743.45 1284.33,2749 1297.13,2749C1321.08,2749 1340.52,2729.56 1340.52,2705.61C1340.52,2685.08 1326.23,2667.86 1307.07,2663.36C1302.49,2644.29 1285.33,2630.1 1264.87,2630.1C1244.41,2630.1 1227.24,2644.29 1222.67,2663.36ZM1227.65,2672.58C1229.82,2672.26 1231.53,2670.56 1231.86,2668.39C1234.32,2652.38 1248.17,2640.1 1264.87,2640.1C1281.56,2640.1 1295.41,2652.38 1297.87,2668.39C1298.2,2670.56 1299.91,2672.26 1302.08,2672.58C1318.17,2674.97 1330.52,2688.86 1330.52,2705.61C1330.52,2724.04 1315.56,2739 1297.13,2739C1285.36,2739 1275.01,2732.9 1269.07,2723.7C1268.14,2722.28 1266.56,2721.42 1264.87,2721.42C1263.17,2721.42 1261.59,2722.28 1260.67,2723.7C1254.72,2732.9 1244.37,2739 1232.6,2739C1214.17,2739 1199.21,2724.04 1199.21,2705.61C1199.21,2688.86 1211.57,2674.97 1227.65,2672.58ZM1198.7,2616.15C1188.24,2616.15 1179.74,2624.64 1179.74,2635.1C1179.74,2645.56 1188.24,2654.06 1198.7,2654.06C1209.16,2654.06 1217.65,2645.56 1217.65,2635.1C1217.65,2624.64 1209.16,2616.15 1198.7,2616.15ZM1331.04,2616.15C1320.57,2616.15 1312.08,2624.64 1312.08,2635.1C1312.08,2645.56 1320.57,2654.06 1331.04,2654.06C1341.5,2654.06 1349.99,2645.56 1349.99,2635.1C1349.99,2624.64 1341.5,2616.15 1331.04,2616.15ZM1198.7,2626.15C1203.64,2626.15 1207.65,2630.16 1207.65,2635.1C1207.65,2640.04 1203.64,2644.06 1198.7,2644.06C1193.76,2644.06 1189.74,2640.04 1189.74,2635.1C1189.74,2630.16 1193.76,2626.15 1198.7,2626.15ZM1331.04,2626.15C1335.98,2626.15 1339.99,2630.16 1339.99,2635.1C1339.99,2640.04 1335.98,2644.06 1331.04,2644.06C1326.09,2644.06 1322.08,2640.04 1322.08,2635.1C1322.08,2630.16 1326.09,2626.15 1331.04,2626.15ZM1237.98,2585.71C1227.52,2585.71 1219.02,2594.21 1219.02,2604.67C1219.02,2615.13 1227.52,2623.62 1237.98,2623.62C1248.44,2623.62 1256.93,2615.13 1256.93,2604.67C1256.93,2594.21 1248.44,2585.71 1237.98,2585.71ZM1291.76,2585.71C1281.29,2585.71 1272.8,2594.21 1272.8,2604.67C1272.8,2615.13 1281.29,2623.62 1291.76,2623.62C1302.22,2623.62 1310.71,2615.13 1310.71,2604.67C1310.71,2594.21 1302.22,2585.71 1291.76,2585.71ZM1237.98,2595.71C1242.92,2595.71 1246.93,2599.73 1246.93,2604.67C1246.93,2609.61 1242.92,2613.62 1237.98,2613.62C1233.03,2613.62 1229.02,2609.61 1229.02,2604.67C1229.02,2599.73 1233.03,2595.71 1237.98,2595.71ZM1291.76,2595.71C1296.7,2595.71 1300.71,2599.73 1300.71,2604.67C1300.71,2609.61 1296.7,2613.62 1291.76,2613.62C1286.81,2613.62 1282.8,2609.61 1282.8,2604.67C1282.8,2599.73 1286.81,2595.71 1291.76,2595.71ZM1452.93,2500C1433.77,2504.5 1419.48,2521.72 1419.48,2542.25C1419.48,2566.2 1438.92,2585.64 1462.87,2585.64C1475.67,2585.64 1487.19,2580.09 1495.13,2571.26C1503.08,2580.09 1514.59,2585.64 1527.4,2585.64C1551.35,2585.64 1570.79,2566.2 1570.79,2542.25C1570.79,2521.72 1556.5,2504.5 1537.33,2500C1532.76,2480.93 1515.59,2466.74 1495.13,2466.74C1474.67,2466.74 1457.51,2480.93 1452.93,2500ZM1457.92,2509.22C1460.09,2508.9 1461.8,2507.2 1462.13,2505.03C1464.59,2489.02 1478.44,2476.74 1495.13,2476.74C1511.83,2476.74 1525.68,2489.02 1528.14,2505.03C1528.47,2507.2 1530.18,2508.9 1532.35,2509.22C1548.43,2511.62 1560.79,2525.5 1560.79,2542.25C1560.79,2560.68 1545.83,2575.64 1527.4,2575.64C1515.63,2575.64 1505.28,2569.55 1499.33,2560.35C1498.41,2558.92 1496.83,2558.06 1495.13,2558.06C1493.44,2558.06 1491.86,2558.92 1490.93,2560.35C1484.99,2569.55 1474.64,2575.64 1462.87,2575.64C1444.44,2575.64 1429.48,2560.68 1429.48,2542.25C1429.48,2525.5 1441.83,2511.62 1457.92,2509.22ZM1561.3,2452.79C1550.84,2452.79 1542.35,2461.28 1542.35,2471.74C1542.35,2482.21 1550.84,2490.7 1561.3,2490.7C1571.76,2490.7 1580.26,2482.21 1580.26,2471.74C1580.26,2461.28 1571.76,2452.79 1561.3,2452.79ZM1428.96,2452.79C1418.5,2452.79 1410.01,2461.28 1410.01,2471.74C1410.01,2482.21 1418.5,2490.7 1428.96,2490.7C1439.43,2490.7 1447.92,2482.21 1447.92,2471.74C1447.92,2461.28 1439.43,2452.79 1428.96,2452.79ZM1561.3,2462.79C1566.25,2462.79 1570.26,2466.8 1570.26,2471.74C1570.26,2476.69 1566.25,2480.7 1561.3,2480.7C1556.36,2480.7 1552.35,2476.69 1552.35,2471.74C1552.35,2466.8 1556.36,2462.79 1561.3,2462.79ZM1428.96,2462.79C1433.91,2462.79 1437.92,2466.8 1437.92,2471.74C1437.92,2476.69 1433.91,2480.7 1428.96,2480.7C1424.02,2480.7 1420.01,2476.69 1420.01,2471.74C1420.01,2466.8 1424.02,2462.79 1428.96,2462.79ZM1468.24,2422.36C1457.78,2422.36 1449.29,2430.85 1449.29,2441.31C1449.29,2451.77 1457.78,2460.27 1468.24,2460.27C1478.71,2460.27 1487.2,2451.77 1487.2,2441.31C1487.2,2430.85 1478.71,2422.36 1468.24,2422.36ZM1522.02,2422.36C1511.56,2422.36 1503.07,2430.85 1503.07,2441.31C1503.07,2451.77 1511.56,2460.27 1522.02,2460.27C1532.49,2460.27 1540.98,2451.77 1540.98,2441.31C1540.98,2430.85 1532.49,2422.36 1522.02,2422.36ZM1468.24,2432.36C1473.19,2432.36 1477.2,2436.37 1477.2,2441.31C1477.2,2446.26 1473.19,2450.27 1468.24,2450.27C1463.3,2450.27 1459.29,2446.26 1459.29,2441.31C1459.29,2436.37 1463.3,2432.36 1468.24,2432.36ZM1522.02,2432.36C1526.97,2432.36 1530.98,2436.37 1530.98,2441.31C1530.98,2446.26 1526.97,2450.27 1522.02,2450.27C1517.08,2450.27 1513.07,2446.26 1513.07,2441.31C1513.07,2436.37 1517.08,2432.36 1522.02,2432.36ZM1222.67,2336.65C1203.5,2341.15 1189.21,2358.36 1189.21,2378.89C1189.21,2402.84 1208.65,2422.29 1232.6,2422.29C1245.41,2422.29 1256.92,2416.73 1264.87,2407.9C1272.81,2416.73 1284.33,2422.29 1297.13,2422.29C1321.08,2422.29 1340.52,2402.84 1340.52,2378.89C1340.52,2358.36 1326.23,2341.15 1307.07,2336.65C1302.49,2317.58 1285.33,2303.39 1264.87,2303.39C1244.41,2303.39 1227.24,2317.58 1222.67,2336.65ZM1227.65,2345.86C1229.82,2345.54 1231.53,2343.84 1231.86,2341.68C1234.32,2325.66 1248.17,2313.39 1264.87,2313.39C1281.56,2313.39 1295.41,2325.66 1297.87,2341.68C1298.2,2343.84 1299.91,2345.54 1302.08,2345.86C1318.17,2348.26 1330.52,2362.14 1330.52,2378.89C1330.52,2397.32 1315.56,2412.29 1297.13,2412.29C1285.36,2412.29 1275.01,2406.19 1269.07,2396.99C1268.14,2395.56 1266.56,2394.7 1264.87,2394.7C1263.17,2394.7 1261.59,2395.56 1260.67,2396.99C1254.72,2406.19 1244.37,2412.29 1232.6,2412.29C1214.17,2412.29 1199.21,2397.32 1199.21,2378.89C1199.21,2362.14 1211.57,2348.26 1227.65,2345.86ZM1198.7,2289.43C1188.24,2289.43 1179.74,2297.93 1179.74,2308.39C1179.74,2318.85 1188.24,2327.34 1198.7,2327.34C1209.16,2327.34 1217.65,2318.85 1217.65,2308.39C1217.65,2297.93 1209.16,2289.43 1198.7,2289.43ZM1331.04,2289.43C1320.57,2289.43 1312.08,2297.93 1312.08,2308.39C1312.08,2318.85 1320.57,2327.34 1331.04,2327.34C1341.5,2327.34 1349.99,2318.85 1349.99,2308.39C1349.99,2297.93 1341.5,2289.43 1331.04,2289.43ZM1198.7,2299.43C1203.64,2299.43 1207.65,2303.45 1207.65,2308.39C1207.65,2313.33 1203.64,2317.34 1198.7,2317.34C1193.76,2317.34 1189.74,2313.33 1189.74,2308.39C1189.74,2303.45 1193.76,2299.43 1198.7,2299.43ZM1331.04,2299.43C1335.98,2299.43 1339.99,2303.45 1339.99,2308.39C1339.99,2313.33 1335.98,2317.34 1331.04,2317.34C1326.09,2317.34 1322.08,2313.33 1322.08,2308.39C1322.08,2303.45 1326.09,2299.43 1331.04,2299.43ZM1237.98,2259C1227.52,2259 1219.02,2267.49 1219.02,2277.95C1219.02,2288.42 1227.52,2296.91 1237.98,2296.91C1248.44,2296.91 1256.93,2288.42 1256.93,2277.95C1256.93,2267.49 1248.44,2259 1237.98,2259ZM1291.76,2259C1281.29,2259 1272.8,2267.49 1272.8,2277.95C1272.8,2288.42 1281.29,2296.91 1291.76,2296.91C1302.22,2296.91 1310.71,2288.42 1310.71,2277.95C1310.71,2267.49 1302.22,2259 1291.76,2259ZM1237.98,2269C1242.92,2269 1246.93,2273.01 1246.93,2277.95C1246.93,2282.9 1242.92,2286.91 1237.98,2286.91C1233.03,2286.91 1229.02,2282.9 1229.02,2277.95C1229.02,2273.01 1233.03,2269 1237.98,2269ZM1291.76,2269C1296.7,2269 1300.71,2273.01 1300.71,2277.95C1300.71,2282.9 1296.7,2286.91 1291.76,2286.91C1286.81,2286.91 1282.8,2282.9 1282.8,2277.95C1282.8,2273.01 1286.81,2269 1291.76,2269Z"/></g></g></svg>