<?xml version="1.0" ?><svg viewBox="0 0 64 64" xmlns="http://www.w3.org/2000/svg"><g id="a"/><g id="b"/><g id="c"/><g id="d"/><g id="e"/><g id="f"/><g id="g"/><g id="h"/><g id="i"/><g id="j"/><g id="k"/><g id="l"/><g id="m"/><g id="n"/><g id="o"/><g id="p"/><g id="q"/><g id="r"/><g id="s"/><g id="t"/><g id="u"/><g id="v"/><g id="w"/><g id="x"/><g id="y"/><g id="a`"/><g id="aa"/><g id="ab"/><g id="ac"/><g id="ad"/><g id="ae"/><g id="af"/><g id="ag"/><g id="ah"/><g id="ai"/><g id="aj"/><g id="ak"><path d="M42.95,27.49c0,1.85,1.51,3.36,3.36,3.36s3.36-1.51,3.36-3.36-1.51-3.36-3.36-3.36-3.36,1.51-3.36,3.36Zm3.36-1.36c.75,0,1.36,.61,1.36,1.36s-.61,1.36-1.36,1.36-1.36-.61-1.36-1.36,.61-1.36,1.36-1.36Z"/><path d="M47.31,22.56v-1.37c0-.55-.45-1-1-1s-1,.45-1,1v1.37c0,.55,.45,1,1,1s1-.45,1-1Z"/><path d="M45.31,32.41v1.37c0,.55,.45,1,1,1s1-.45,1-1v-1.37c0-.55-.45-1-1-1s-1,.45-1,1Z"/><path d="M53.61,27.49c0-.55-.45-1-1-1h-1.37c-.55,0-1,.45-1,1s.45,1,1,1h1.37c.55,0,1-.45,1-1Z"/><path d="M39.02,27.49c0,.55,.45,1,1,1h1.37c.55,0,1-.45,1-1s-.45-1-1-1h-1.37c-.55,0-1,.45-1,1Z"/><path d="M50.05,22.33l-.97,.97c-.39,.39-.39,1.02,0,1.41,.2,.2,.45,.29,.71,.29s.51-.1,.71-.29l.97-.97c.39-.39,.39-1.02,0-1.41s-1.02-.39-1.41,0Z"/><path d="M42.12,30.26l-.97,.97c-.39,.39-.39,1.02,0,1.41,.2,.19,.45,.29,.71,.29s.51-.1,.71-.29l.97-.97c.39-.39,.39-1.02,0-1.41-.39-.39-1.02-.39-1.41,0Z"/><path d="M49.09,30.26c-.39,.39-.39,1.02,0,1.41l.97,.97c.2,.2,.45,.29,.71,.29s.51-.1,.71-.29c.39-.39,.39-1.02,0-1.41l-.97-.97c-.39-.39-1.02-.39-1.42,0Z"/><path d="M42.57,22.33c-.39-.39-1.02-.39-1.41,0-.39,.39-.39,1.02,0,1.41l.97,.97c.2,.19,.45,.29,.71,.29s.51-.1,.71-.29c.39-.39,.39-1.02,0-1.41l-.97-.97Z"/><path d="M58.38,41.03c-1.12-.58-2.47-.46-3.62,.34-1.45,1.01-3.69,.92-5.31-.21-2.36-1.63-5.53-1.63-7.89,0-1.39,.96-3.13,1.14-4.68,.5-1.46-.9-3.17-1.64-5.03-2.22v-1.31c0-1.14-.44-2.21-1.25-3.02-.81-.8-1.88-1.25-3.01-1.25h0c-.37,0-.74,.05-1.1,.15-.97-1.03-2.3-1.7-3.71-1.86-1.09-1.72-2.98-2.78-5.06-2.78-.21,0-.41,.07-.61,.1-.6-3.08-3.32-5.41-6.57-5.41H6.44c-1.34,0-2.44,1.09-2.44,2.44v27.63c0,2.31,1.88,4.2,4.2,4.2H55.8c2.31,0,4.2-1.88,4.2-4.2v-10.39c0-1.16-.61-2.18-1.62-2.71Zm-15.68,1.77c1.71-1.18,3.91-1.18,5.61,0,2.32,1.61,5.44,1.7,7.59,.21,.53-.37,1.11-.44,1.56-.21,.35,.18,.55,.52,.55,.94v1.62c-1.04-.39-2.22-.24-3.25,.47-1.45,1-3.68,.92-5.31-.21-2.36-1.63-5.53-1.63-7.89,0-.16,.11-.34,.16-.5,.25-.35-.68-.8-1.32-1.35-1.92,1.05-.15,2.08-.51,2.99-1.14Zm-6.75,7.27c-2.33-1.62-5.55-1.62-7.89,0-1.71,1.18-3.91,1.18-5.61,0-2.33-1.61-5.56-1.61-7.89,0-1.62,1.13-3.86,1.21-5.31,.21-1.03-.71-2.21-.86-3.25-.47v-6.37c0-2.19,1.37-3.56,3.58-3.56h11.63c8.98,0,18.67,3.57,18.67,9.33,0,.59-.11,1.13-.26,1.61-1.26,.23-2.57,.02-3.69-.75ZM17.71,31.37c1.52,0,2.88,.85,3.57,2.2,.17,.33,.51,.54,.88,.55,1.26,.02,2.46,.64,3.2,1.66,.28,.39,.81,.53,1.25,.31,.3-.15,.64-.23,.98-.23h0c.6,0,1.17,.24,1.6,.66,.43,.43,.66,1,.66,1.6v.76c-2.75-.66-5.71-1-8.63-1h-4v-6.44c.16-.02,.32-.07,.48-.08Zm-11.27-5.31h4.09c2.59,0,4.7,2.11,4.7,4.7v7.13h-3.12v-2.3c0-.55-.45-1-1-1s-1,.45-1,1v2.3h-.52c-1.42,0-2.64,.45-3.58,1.2v-12.58c0-.25,.19-.44,.44-.44Zm51.56,28.07c0,1.21-.99,2.2-2.2,2.2H8.2c-1.21,0-2.2-.99-2.2-2.2v-1.47c0-.41,.2-.75,.55-.94,.17-.09,.36-.13,.56-.13,.32,0,.67,.12,1,.34,2.15,1.49,5.27,1.4,7.59-.21,1.66-1.15,3.95-1.15,5.61,0,2.36,1.63,5.53,1.63,7.89,0,1.66-1.15,3.95-1.15,5.61,0,2.42,1.68,5.66,1.54,7.89,0,1.71-1.18,3.91-1.18,5.61,0,2.32,1.61,5.44,1.7,7.59,.21,.53-.37,1.11-.44,1.56-.21,.35,.18,.55,.53,.55,.94v1.47Zm0-4.35c-1.04-.38-2.22-.2-3.25,.51-1.45,1.01-3.68,.92-5.31-.21-2.28-1.58-5.29-1.6-7.62-.13,.02-.25,.07-.48,.07-.73,0-.51-.06-1-.16-1.48,.32-.16,.66-.27,.96-.47,1.71-1.18,3.91-1.18,5.61,0,2.32,1.61,5.44,1.69,7.59,.21,.53-.37,1.11-.44,1.56-.21,.35,.18,.55,.52,.55,.94v1.58Z"/><circle cx="27.81" cy="46.08" r="1"/><circle cx="19.66" cy="43.54" r="1"/><circle cx="13.88" cy="47.91" r="1"/><path d="M11.1,32.98c.55,0,1-.45,1-1v-3.31c0-.55-.45-1-1-1s-1,.45-1,1v3.31c0,.55,.45,1,1,1Z"/><path d="M28.42,12.78h.89c1.7,0,3.08-1.38,3.08-3.08s-1.38-3.08-3.08-3.08H10.42c-1.7,0-3.08,1.38-3.08,3.08s1.38,3.08,3.08,3.08h9.63c.26,0,.46,.2,.46,.46s-.2,.46-.45,.46h-.67c-1.7,0-3.08,1.38-3.08,3.08s1.38,3.08,3.08,3.08h16.12c1.7,0,3.08-1.38,3.08-3.08s-1.38-3.08-3.08-3.08h-7.08c-.26,0-.46-.2-.46-.46s.2-.46,.46-.46Zm0,2.92h7.08c.6,0,1.08,.48,1.08,1.08s-.49,1.08-1.08,1.08H19.38c-.6,0-1.08-.48-1.08-1.08s.49-1.08,1.08-1.08h.67c1.35,0,2.45-1.11,2.45-2.46s-1.1-2.46-2.45-2.46H10.42c-.6,0-1.08-.48-1.08-1.08s.49-1.08,1.08-1.08H29.31c.6,0,1.08,.48,1.08,1.08s-.49,1.08-1.08,1.08h-.89c-1.36,0-2.46,1.1-2.46,2.46s1.1,2.46,2.46,2.46Z"/><path d="M27,22.86c-2.01,0-3.64,1.63-3.64,3.64s1.63,3.64,3.64,3.64h6.36c2.01,0,3.64-1.63,3.64-3.64s-1.63-3.64-3.64-3.64h-6.36Zm8,3.64c0,.9-.74,1.64-1.64,1.64h-6.36c-.9,0-1.64-.74-1.64-1.64s.74-1.64,1.64-1.64h6.36c.9,0,1.64,.74,1.64,1.64Z"/><path d="M57.45,5.68h-12.5c-1.85,0-3.35,1.5-3.35,3.35s1.5,3.35,3.35,3.35h8.5c.26,0,.47,.21,.47,.47s-.21,.47-.47,.47h-1.12c-1.47,0-2.67,1.2-2.67,2.67s1.2,2.67,2.67,2.67h5.11c1.41,0,2.55-1.14,2.55-2.55v-7.88c0-1.41-1.14-2.55-2.55-2.55Zm.55,10.43c0,.3-.25,.55-.55,.55h-5.11c-.37,0-.67-.3-.67-.67s.3-.67,.67-.67h1.12c1.36,0,2.47-1.11,2.47-2.47s-1.11-2.47-2.47-2.47h-8.5c-.74,0-1.35-.6-1.35-1.35s.61-1.35,1.35-1.35h12.5c.3,0,.55,.25,.55,.55v7.88Z"/></g><g id="al"/><g id="am"/><g id="an"/><g id="ao"/><g id="ap"/><g id="aq"/><g id="ar"/><g id="as"/><g id="at"/><g id="au"/><g id="av"/><g id="aw"/><g id="ax"/></svg>